<?xml version="1.0" encoding="utf-8" standalone="no"?>
<!DOCTYPE svg PUBLIC "-//W3C//DTD SVG 1.1//EN"
  "http://www.w3.org/Graphics/SVG/1.1/DTD/svg11.dtd">
<svg xmlns:xlink="http://www.w3.org/1999/xlink" width="408.10125pt" height="325.986375pt" viewBox="0 0 408.10125 325.986375" xmlns="http://www.w3.org/2000/svg" version="1.1">
 <metadata>
  <rdf:RDF xmlns:dc="http://purl.org/dc/elements/1.1/" xmlns:cc="http://creativecommons.org/ns#" xmlns:rdf="http://www.w3.org/1999/02/22-rdf-syntax-ns#">
   <cc:Work>
    <dc:type rdf:resource="http://purl.org/dc/dcmitype/StillImage"/>
    <dc:date>2026-02-11T13:33:19.222836</dc:date>
    <dc:format>image/svg+xml</dc:format>
    <dc:creator>
     <cc:Agent>
      <dc:title>Matplotlib v3.10.8, https://matplotlib.org/</dc:title>
     </cc:Agent>
    </dc:creator>
   </cc:Work>
  </rdf:RDF>
 </metadata>
 <defs>
  <style type="text/css">*{stroke-linejoin: round; stroke-linecap: butt}</style>
 </defs>
 <g id="figure_1">
  <g id="patch_1">
   <path d="M 0 325.986375 
L 408.10125 325.986375 
L 408.10125 0 
L 0 0 
z
" style="fill: #ffffff"/>
  </g>
  <g id="axes_1">
   <g id="patch_2">
    <path d="M 43.78125 288.430125 
L 400.90125 288.430125 
L 400.90125 22.318125 
L 43.78125 22.318125 
z
" style="fill: #ffffff"/>
   </g>
   <g id="matplotlib.axis_1">
    <g id="xtick_1">
     <g id="line2d_1">
      <defs>
       <path id="m94e8f4a938" d="M 0 0 
L 0 3.5 
" style="stroke: #000000; stroke-width: 0.8"/>
      </defs>
      <g>
       <use xlink:href="#m94e8f4a938" x="58.382547" y="288.430125" style="stroke: #000000; stroke-width: 0.8"/>
      </g>
     </g>
     <g id="text_1">
      <!-- 0 -->
      <g transform="translate(55.201297 303.028562) scale(0.1 -0.1)">
       <defs>
        <path id="DejaVuSans-30" d="M 2034 4250 
Q 1547 4250 1301 3770 
Q 1056 3291 1056 2328 
Q 1056 1369 1301 889 
Q 1547 409 2034 409 
Q 2525 409 2770 889 
Q 3016 1369 3016 2328 
Q 3016 3291 2770 3770 
Q 2525 4250 2034 4250 
z
M 2034 4750 
Q 2819 4750 3233 4129 
Q 3647 3509 3647 2328 
Q 3647 1150 3233 529 
Q 2819 -91 2034 -91 
Q 1250 -91 836 529 
Q 422 1150 422 2328 
Q 422 3509 836 4129 
Q 1250 4750 2034 4750 
z
" transform="scale(0.015625)"/>
       </defs>
       <use xlink:href="#DejaVuSans-30"/>
      </g>
     </g>
    </g>
    <g id="xtick_2">
     <g id="line2d_2">
      <g>
       <use xlink:href="#m94e8f4a938" x="99.168294" y="288.430125" style="stroke: #000000; stroke-width: 0.8"/>
      </g>
     </g>
     <g id="text_2">
      <!-- 25 -->
      <g transform="translate(92.805794 303.028562) scale(0.1 -0.1)">
       <defs>
        <path id="DejaVuSans-32" d="M 1228 531 
L 3431 531 
L 3431 0 
L 469 0 
L 469 531 
Q 828 903 1448 1529 
Q 2069 2156 2228 2338 
Q 2531 2678 2651 2914 
Q 2772 3150 2772 3378 
Q 2772 3750 2511 3984 
Q 2250 4219 1831 4219 
Q 1534 4219 1204 4116 
Q 875 4013 500 3803 
L 500 4441 
Q 881 4594 1212 4672 
Q 1544 4750 1819 4750 
Q 2544 4750 2975 4387 
Q 3406 4025 3406 3419 
Q 3406 3131 3298 2873 
Q 3191 2616 2906 2266 
Q 2828 2175 2409 1742 
Q 1991 1309 1228 531 
z
" transform="scale(0.015625)"/>
        <path id="DejaVuSans-35" d="M 691 4666 
L 3169 4666 
L 3169 4134 
L 1269 4134 
L 1269 2991 
Q 1406 3038 1543 3061 
Q 1681 3084 1819 3084 
Q 2600 3084 3056 2656 
Q 3513 2228 3513 1497 
Q 3513 744 3044 326 
Q 2575 -91 1722 -91 
Q 1428 -91 1123 -41 
Q 819 9 494 109 
L 494 744 
Q 775 591 1075 516 
Q 1375 441 1709 441 
Q 2250 441 2565 725 
Q 2881 1009 2881 1497 
Q 2881 1984 2565 2268 
Q 2250 2553 1709 2553 
Q 1456 2553 1204 2497 
Q 953 2441 691 2322 
L 691 4666 
z
" transform="scale(0.015625)"/>
       </defs>
       <use xlink:href="#DejaVuSans-32"/>
       <use xlink:href="#DejaVuSans-35" transform="translate(63.623047 0)"/>
      </g>
     </g>
    </g>
    <g id="xtick_3">
     <g id="line2d_3">
      <g>
       <use xlink:href="#m94e8f4a938" x="139.954041" y="288.430125" style="stroke: #000000; stroke-width: 0.8"/>
      </g>
     </g>
     <g id="text_3">
      <!-- 50 -->
      <g transform="translate(133.591541 303.028562) scale(0.1 -0.1)">
       <use xlink:href="#DejaVuSans-35"/>
       <use xlink:href="#DejaVuSans-30" transform="translate(63.623047 0)"/>
      </g>
     </g>
    </g>
    <g id="xtick_4">
     <g id="line2d_4">
      <g>
       <use xlink:href="#m94e8f4a938" x="180.739788" y="288.430125" style="stroke: #000000; stroke-width: 0.8"/>
      </g>
     </g>
     <g id="text_4">
      <!-- 75 -->
      <g transform="translate(174.377288 303.028562) scale(0.1 -0.1)">
       <defs>
        <path id="DejaVuSans-37" d="M 525 4666 
L 3525 4666 
L 3525 4397 
L 1831 0 
L 1172 0 
L 2766 4134 
L 525 4134 
L 525 4666 
z
" transform="scale(0.015625)"/>
       </defs>
       <use xlink:href="#DejaVuSans-37"/>
       <use xlink:href="#DejaVuSans-35" transform="translate(63.623047 0)"/>
      </g>
     </g>
    </g>
    <g id="xtick_5">
     <g id="line2d_5">
      <g>
       <use xlink:href="#m94e8f4a938" x="221.525535" y="288.430125" style="stroke: #000000; stroke-width: 0.8"/>
      </g>
     </g>
     <g id="text_5">
      <!-- 100 -->
      <g transform="translate(211.981785 303.028562) scale(0.1 -0.1)">
       <defs>
        <path id="DejaVuSans-31" d="M 794 531 
L 1825 531 
L 1825 4091 
L 703 3866 
L 703 4441 
L 1819 4666 
L 2450 4666 
L 2450 531 
L 3481 531 
L 3481 0 
L 794 0 
L 794 531 
z
" transform="scale(0.015625)"/>
       </defs>
       <use xlink:href="#DejaVuSans-31"/>
       <use xlink:href="#DejaVuSans-30" transform="translate(63.623047 0)"/>
       <use xlink:href="#DejaVuSans-30" transform="translate(127.246094 0)"/>
      </g>
     </g>
    </g>
    <g id="xtick_6">
     <g id="line2d_6">
      <g>
       <use xlink:href="#m94e8f4a938" x="262.311282" y="288.430125" style="stroke: #000000; stroke-width: 0.8"/>
      </g>
     </g>
     <g id="text_6">
      <!-- 125 -->
      <g transform="translate(252.767532 303.028562) scale(0.1 -0.1)">
       <use xlink:href="#DejaVuSans-31"/>
       <use xlink:href="#DejaVuSans-32" transform="translate(63.623047 0)"/>
       <use xlink:href="#DejaVuSans-35" transform="translate(127.246094 0)"/>
      </g>
     </g>
    </g>
    <g id="xtick_7">
     <g id="line2d_7">
      <g>
       <use xlink:href="#m94e8f4a938" x="303.097029" y="288.430125" style="stroke: #000000; stroke-width: 0.8"/>
      </g>
     </g>
     <g id="text_7">
      <!-- 150 -->
      <g transform="translate(293.553279 303.028562) scale(0.1 -0.1)">
       <use xlink:href="#DejaVuSans-31"/>
       <use xlink:href="#DejaVuSans-35" transform="translate(63.623047 0)"/>
       <use xlink:href="#DejaVuSans-30" transform="translate(127.246094 0)"/>
      </g>
     </g>
    </g>
    <g id="xtick_8">
     <g id="line2d_8">
      <g>
       <use xlink:href="#m94e8f4a938" x="343.882776" y="288.430125" style="stroke: #000000; stroke-width: 0.8"/>
      </g>
     </g>
     <g id="text_8">
      <!-- 175 -->
      <g transform="translate(334.339026 303.028562) scale(0.1 -0.1)">
       <use xlink:href="#DejaVuSans-31"/>
       <use xlink:href="#DejaVuSans-37" transform="translate(63.623047 0)"/>
       <use xlink:href="#DejaVuSans-35" transform="translate(127.246094 0)"/>
      </g>
     </g>
    </g>
    <g id="xtick_9">
     <g id="line2d_9">
      <g>
       <use xlink:href="#m94e8f4a938" x="384.668523" y="288.430125" style="stroke: #000000; stroke-width: 0.8"/>
      </g>
     </g>
     <g id="text_9">
      <!-- 200 -->
      <g transform="translate(375.124773 303.028562) scale(0.1 -0.1)">
       <use xlink:href="#DejaVuSans-32"/>
       <use xlink:href="#DejaVuSans-30" transform="translate(63.623047 0)"/>
       <use xlink:href="#DejaVuSans-30" transform="translate(127.246094 0)"/>
      </g>
     </g>
    </g>
    <g id="text_10">
     <!-- Epoch -->
     <g transform="translate(207.030313 316.706687) scale(0.1 -0.1)">
      <defs>
       <path id="DejaVuSans-45" d="M 628 4666 
L 3578 4666 
L 3578 4134 
L 1259 4134 
L 1259 2753 
L 3481 2753 
L 3481 2222 
L 1259 2222 
L 1259 531 
L 3634 531 
L 3634 0 
L 628 0 
L 628 4666 
z
" transform="scale(0.015625)"/>
       <path id="DejaVuSans-70" d="M 1159 525 
L 1159 -1331 
L 581 -1331 
L 581 3500 
L 1159 3500 
L 1159 2969 
Q 1341 3281 1617 3432 
Q 1894 3584 2278 3584 
Q 2916 3584 3314 3078 
Q 3713 2572 3713 1747 
Q 3713 922 3314 415 
Q 2916 -91 2278 -91 
Q 1894 -91 1617 61 
Q 1341 213 1159 525 
z
M 3116 1747 
Q 3116 2381 2855 2742 
Q 2594 3103 2138 3103 
Q 1681 3103 1420 2742 
Q 1159 2381 1159 1747 
Q 1159 1113 1420 752 
Q 1681 391 2138 391 
Q 2594 391 2855 752 
Q 3116 1113 3116 1747 
z
" transform="scale(0.015625)"/>
       <path id="DejaVuSans-6f" d="M 1959 3097 
Q 1497 3097 1228 2736 
Q 959 2375 959 1747 
Q 959 1119 1226 758 
Q 1494 397 1959 397 
Q 2419 397 2687 759 
Q 2956 1122 2956 1747 
Q 2956 2369 2687 2733 
Q 2419 3097 1959 3097 
z
M 1959 3584 
Q 2709 3584 3137 3096 
Q 3566 2609 3566 1747 
Q 3566 888 3137 398 
Q 2709 -91 1959 -91 
Q 1206 -91 779 398 
Q 353 888 353 1747 
Q 353 2609 779 3096 
Q 1206 3584 1959 3584 
z
" transform="scale(0.015625)"/>
       <path id="DejaVuSans-63" d="M 3122 3366 
L 3122 2828 
Q 2878 2963 2633 3030 
Q 2388 3097 2138 3097 
Q 1578 3097 1268 2742 
Q 959 2388 959 1747 
Q 959 1106 1268 751 
Q 1578 397 2138 397 
Q 2388 397 2633 464 
Q 2878 531 3122 666 
L 3122 134 
Q 2881 22 2623 -34 
Q 2366 -91 2075 -91 
Q 1284 -91 818 406 
Q 353 903 353 1747 
Q 353 2603 823 3093 
Q 1294 3584 2113 3584 
Q 2378 3584 2631 3529 
Q 2884 3475 3122 3366 
z
" transform="scale(0.015625)"/>
       <path id="DejaVuSans-68" d="M 3513 2113 
L 3513 0 
L 2938 0 
L 2938 2094 
Q 2938 2591 2744 2837 
Q 2550 3084 2163 3084 
Q 1697 3084 1428 2787 
Q 1159 2491 1159 1978 
L 1159 0 
L 581 0 
L 581 4863 
L 1159 4863 
L 1159 2956 
Q 1366 3272 1645 3428 
Q 1925 3584 2291 3584 
Q 2894 3584 3203 3211 
Q 3513 2838 3513 2113 
z
" transform="scale(0.015625)"/>
      </defs>
      <use xlink:href="#DejaVuSans-45"/>
      <use xlink:href="#DejaVuSans-70" transform="translate(63.183594 0)"/>
      <use xlink:href="#DejaVuSans-6f" transform="translate(126.660156 0)"/>
      <use xlink:href="#DejaVuSans-63" transform="translate(187.841797 0)"/>
      <use xlink:href="#DejaVuSans-68" transform="translate(242.822266 0)"/>
     </g>
    </g>
   </g>
   <g id="matplotlib.axis_2">
    <g id="ytick_1">
     <g id="line2d_10">
      <defs>
       <path id="m86a5bbd8bf" d="M 0 0 
L -3.5 0 
" style="stroke: #000000; stroke-width: 0.8"/>
      </defs>
      <g>
       <use xlink:href="#m86a5bbd8bf" x="43.78125" y="255.099889" style="stroke: #000000; stroke-width: 0.8"/>
      </g>
     </g>
     <g id="text_11">
      <!-- 0.4 -->
      <g transform="translate(20.878125 258.899108) scale(0.1 -0.1)">
       <defs>
        <path id="DejaVuSans-2e" d="M 684 794 
L 1344 794 
L 1344 0 
L 684 0 
L 684 794 
z
" transform="scale(0.015625)"/>
        <path id="DejaVuSans-34" d="M 2419 4116 
L 825 1625 
L 2419 1625 
L 2419 4116 
z
M 2253 4666 
L 3047 4666 
L 3047 1625 
L 3713 1625 
L 3713 1100 
L 3047 1100 
L 3047 0 
L 2419 0 
L 2419 1100 
L 313 1100 
L 313 1709 
L 2253 4666 
z
" transform="scale(0.015625)"/>
       </defs>
       <use xlink:href="#DejaVuSans-30"/>
       <use xlink:href="#DejaVuSans-2e" transform="translate(63.623047 0)"/>
       <use xlink:href="#DejaVuSans-34" transform="translate(95.410156 0)"/>
      </g>
     </g>
    </g>
    <g id="ytick_2">
     <g id="line2d_11">
      <g>
       <use xlink:href="#m86a5bbd8bf" x="43.78125" y="206.975366" style="stroke: #000000; stroke-width: 0.8"/>
      </g>
     </g>
     <g id="text_12">
      <!-- 0.5 -->
      <g transform="translate(20.878125 210.774585) scale(0.1 -0.1)">
       <use xlink:href="#DejaVuSans-30"/>
       <use xlink:href="#DejaVuSans-2e" transform="translate(63.623047 0)"/>
       <use xlink:href="#DejaVuSans-35" transform="translate(95.410156 0)"/>
      </g>
     </g>
    </g>
    <g id="ytick_3">
     <g id="line2d_12">
      <g>
       <use xlink:href="#m86a5bbd8bf" x="43.78125" y="158.850843" style="stroke: #000000; stroke-width: 0.8"/>
      </g>
     </g>
     <g id="text_13">
      <!-- 0.6 -->
      <g transform="translate(20.878125 162.650061) scale(0.1 -0.1)">
       <defs>
        <path id="DejaVuSans-36" d="M 2113 2584 
Q 1688 2584 1439 2293 
Q 1191 2003 1191 1497 
Q 1191 994 1439 701 
Q 1688 409 2113 409 
Q 2538 409 2786 701 
Q 3034 994 3034 1497 
Q 3034 2003 2786 2293 
Q 2538 2584 2113 2584 
z
M 3366 4563 
L 3366 3988 
Q 3128 4100 2886 4159 
Q 2644 4219 2406 4219 
Q 1781 4219 1451 3797 
Q 1122 3375 1075 2522 
Q 1259 2794 1537 2939 
Q 1816 3084 2150 3084 
Q 2853 3084 3261 2657 
Q 3669 2231 3669 1497 
Q 3669 778 3244 343 
Q 2819 -91 2113 -91 
Q 1303 -91 875 529 
Q 447 1150 447 2328 
Q 447 3434 972 4092 
Q 1497 4750 2381 4750 
Q 2619 4750 2861 4703 
Q 3103 4656 3366 4563 
z
" transform="scale(0.015625)"/>
       </defs>
       <use xlink:href="#DejaVuSans-30"/>
       <use xlink:href="#DejaVuSans-2e" transform="translate(63.623047 0)"/>
       <use xlink:href="#DejaVuSans-36" transform="translate(95.410156 0)"/>
      </g>
     </g>
    </g>
    <g id="ytick_4">
     <g id="line2d_13">
      <g>
       <use xlink:href="#m86a5bbd8bf" x="43.78125" y="110.726319" style="stroke: #000000; stroke-width: 0.8"/>
      </g>
     </g>
     <g id="text_14">
      <!-- 0.7 -->
      <g transform="translate(20.878125 114.525538) scale(0.1 -0.1)">
       <use xlink:href="#DejaVuSans-30"/>
       <use xlink:href="#DejaVuSans-2e" transform="translate(63.623047 0)"/>
       <use xlink:href="#DejaVuSans-37" transform="translate(95.410156 0)"/>
      </g>
     </g>
    </g>
    <g id="ytick_5">
     <g id="line2d_14">
      <g>
       <use xlink:href="#m86a5bbd8bf" x="43.78125" y="62.601796" style="stroke: #000000; stroke-width: 0.8"/>
      </g>
     </g>
     <g id="text_15">
      <!-- 0.8 -->
      <g transform="translate(20.878125 66.401015) scale(0.1 -0.1)">
       <defs>
        <path id="DejaVuSans-38" d="M 2034 2216 
Q 1584 2216 1326 1975 
Q 1069 1734 1069 1313 
Q 1069 891 1326 650 
Q 1584 409 2034 409 
Q 2484 409 2743 651 
Q 3003 894 3003 1313 
Q 3003 1734 2745 1975 
Q 2488 2216 2034 2216 
z
M 1403 2484 
Q 997 2584 770 2862 
Q 544 3141 544 3541 
Q 544 4100 942 4425 
Q 1341 4750 2034 4750 
Q 2731 4750 3128 4425 
Q 3525 4100 3525 3541 
Q 3525 3141 3298 2862 
Q 3072 2584 2669 2484 
Q 3125 2378 3379 2068 
Q 3634 1759 3634 1313 
Q 3634 634 3220 271 
Q 2806 -91 2034 -91 
Q 1263 -91 848 271 
Q 434 634 434 1313 
Q 434 1759 690 2068 
Q 947 2378 1403 2484 
z
M 1172 3481 
Q 1172 3119 1398 2916 
Q 1625 2713 2034 2713 
Q 2441 2713 2670 2916 
Q 2900 3119 2900 3481 
Q 2900 3844 2670 4047 
Q 2441 4250 2034 4250 
Q 1625 4250 1398 4047 
Q 1172 3844 1172 3481 
z
" transform="scale(0.015625)"/>
       </defs>
       <use xlink:href="#DejaVuSans-30"/>
       <use xlink:href="#DejaVuSans-2e" transform="translate(63.623047 0)"/>
       <use xlink:href="#DejaVuSans-38" transform="translate(95.410156 0)"/>
      </g>
     </g>
    </g>
    <g id="text_16">
     <!-- Accuracy -->
     <g transform="translate(14.798438 178.20225) rotate(-90) scale(0.1 -0.1)">
      <defs>
       <path id="DejaVuSans-41" d="M 2188 4044 
L 1331 1722 
L 3047 1722 
L 2188 4044 
z
M 1831 4666 
L 2547 4666 
L 4325 0 
L 3669 0 
L 3244 1197 
L 1141 1197 
L 716 0 
L 50 0 
L 1831 4666 
z
" transform="scale(0.015625)"/>
       <path id="DejaVuSans-75" d="M 544 1381 
L 544 3500 
L 1119 3500 
L 1119 1403 
Q 1119 906 1312 657 
Q 1506 409 1894 409 
Q 2359 409 2629 706 
Q 2900 1003 2900 1516 
L 2900 3500 
L 3475 3500 
L 3475 0 
L 2900 0 
L 2900 538 
Q 2691 219 2414 64 
Q 2138 -91 1772 -91 
Q 1169 -91 856 284 
Q 544 659 544 1381 
z
M 1991 3584 
L 1991 3584 
z
" transform="scale(0.015625)"/>
       <path id="DejaVuSans-72" d="M 2631 2963 
Q 2534 3019 2420 3045 
Q 2306 3072 2169 3072 
Q 1681 3072 1420 2755 
Q 1159 2438 1159 1844 
L 1159 0 
L 581 0 
L 581 3500 
L 1159 3500 
L 1159 2956 
Q 1341 3275 1631 3429 
Q 1922 3584 2338 3584 
Q 2397 3584 2469 3576 
Q 2541 3569 2628 3553 
L 2631 2963 
z
" transform="scale(0.015625)"/>
       <path id="DejaVuSans-61" d="M 2194 1759 
Q 1497 1759 1228 1600 
Q 959 1441 959 1056 
Q 959 750 1161 570 
Q 1363 391 1709 391 
Q 2188 391 2477 730 
Q 2766 1069 2766 1631 
L 2766 1759 
L 2194 1759 
z
M 3341 1997 
L 3341 0 
L 2766 0 
L 2766 531 
Q 2569 213 2275 61 
Q 1981 -91 1556 -91 
Q 1019 -91 701 211 
Q 384 513 384 1019 
Q 384 1609 779 1909 
Q 1175 2209 1959 2209 
L 2766 2209 
L 2766 2266 
Q 2766 2663 2505 2880 
Q 2244 3097 1772 3097 
Q 1472 3097 1187 3025 
Q 903 2953 641 2809 
L 641 3341 
Q 956 3463 1253 3523 
Q 1550 3584 1831 3584 
Q 2591 3584 2966 3190 
Q 3341 2797 3341 1997 
z
" transform="scale(0.015625)"/>
       <path id="DejaVuSans-79" d="M 2059 -325 
Q 1816 -950 1584 -1140 
Q 1353 -1331 966 -1331 
L 506 -1331 
L 506 -850 
L 844 -850 
Q 1081 -850 1212 -737 
Q 1344 -625 1503 -206 
L 1606 56 
L 191 3500 
L 800 3500 
L 1894 763 
L 2988 3500 
L 3597 3500 
L 2059 -325 
z
" transform="scale(0.015625)"/>
      </defs>
      <use xlink:href="#DejaVuSans-41"/>
      <use xlink:href="#DejaVuSans-63" transform="translate(66.658203 0)"/>
      <use xlink:href="#DejaVuSans-63" transform="translate(121.638672 0)"/>
      <use xlink:href="#DejaVuSans-75" transform="translate(176.619141 0)"/>
      <use xlink:href="#DejaVuSans-72" transform="translate(239.998047 0)"/>
      <use xlink:href="#DejaVuSans-61" transform="translate(281.111328 0)"/>
      <use xlink:href="#DejaVuSans-63" transform="translate(342.390625 0)"/>
      <use xlink:href="#DejaVuSans-79" transform="translate(397.371094 0)"/>
     </g>
    </g>
   </g>
   <g id="line2d_15">
    <path d="M 60.013977 276.334125 
L 61.645407 172.846462 
L 63.276837 141.561622 
L 64.908267 123.098043 
L 66.539697 102.937206 
L 69.802557 81.675459 
L 71.433986 74.794632 
L 73.065416 73.968922 
L 74.696846 69.175291 
L 76.328276 63.647683 
L 77.959706 63.854096 
L 79.591136 58.739343 
L 81.222566 58.165941 
L 82.853996 55.115464 
L 84.485425 55.115464 
L 86.116855 53.441124 
L 87.748285 53.945712 
L 89.379715 55.138383 
L 91.011145 50.367671 
L 92.642575 48.578679 
L 94.274005 48.441051 
L 95.905435 46.193309 
L 99.168294 46.353856 
L 100.799724 45.551093 
L 102.431154 45.757535 
L 104.062584 44.908876 
L 105.694014 44.358422 
L 107.325444 42.362988 
L 108.956874 46.42267 
L 110.588303 43.693287 
L 112.219733 44.587783 
L 113.851163 45.321732 
L 115.482593 40.482235 
L 117.114023 39.083122 
L 118.745453 42.34004 
L 120.376883 41.124422 
L 122.008313 38.050998 
L 123.639742 42.82171 
L 125.271172 40.55102 
L 126.902602 91.85907 
L 128.534032 78.556139 
L 130.165462 72.501024 
L 131.796892 74.152416 
L 133.428322 58.808157 
L 135.059752 53.303496 
L 136.691181 49.725483 
L 138.322611 50.115391 
L 139.954041 47.225433 
L 141.585471 46.147442 
L 143.216901 48.762145 
L 144.848331 46.101576 
L 146.479761 44.312555 
L 148.111191 46.674978 
L 149.74262 45.023557 
L 151.37405 46.491484 
L 153.00548 45.000638 
L 154.63691 45.941 
L 156.26834 53.555804 
L 157.89977 47.363061 
L 159.5312 44.518969 
L 161.16263 39.908832 
L 162.79406 38.601452 
L 164.425489 36.973008 
L 166.056919 36.927112 
L 167.688349 39.748257 
L 169.319779 37.339968 
L 170.951209 40.849195 
L 172.582639 39.58771 
L 174.214069 37.06474 
L 175.845499 38.303306 
L 177.476928 40.780381 
L 179.108358 48.647464 
L 180.739788 77.294654 
L 182.371218 59.014599 
L 184.002648 62.9596 
L 185.634078 74.955179 
L 187.265508 161.928873 
L 188.896938 198.144972 
L 190.528367 165.850927 
L 192.159797 127.547662 
L 193.791227 104.978535 
L 195.422657 91.262749 
L 197.054087 83.441532 
L 198.685517 79.49653 
L 200.316947 82.042447 
L 201.948377 77.799243 
L 203.579806 75.253354 
L 205.211236 114.611691 
L 206.842666 104.473946 
L 208.474096 102.04271 
L 210.105526 86.033315 
L 211.736956 92.249006 
L 213.368386 78.097418 
L 214.999816 72.959745 
L 216.631245 66.400013 
L 218.262675 67.890859 
L 219.894105 67.088096 
L 221.525535 62.24857 
L 223.156965 98.418802 
L 224.788395 150.896604 
L 226.419825 113.487834 
L 228.051255 97.8454 
L 229.682684 88.349871 
L 231.314114 80.436893 
L 232.945544 93.877451 
L 234.576974 96.950904 
L 236.208404 107.272143 
L 237.839834 94.106812 
L 239.471264 89.542542 
L 241.102694 81.239684 
L 242.734123 74.404725 
L 244.365553 75.528582 
L 245.996983 104.038144 
L 247.628413 136.584468 
L 249.259843 104.267504 
L 250.891273 97.088503 
L 252.522703 86.170943 
L 255.785562 74.657004 
L 257.416992 81.514912 
L 259.048422 76.950613 
L 260.679852 70.849631 
L 262.311282 67.753231 
L 263.942712 74.565272 
L 265.574142 66.835787 
L 267.205572 66.44588 
L 268.837001 73.14324 
L 270.468431 82.845211 
L 272.099861 72.845065 
L 273.731291 72.455157 
L 275.362721 75.207488 
L 276.994151 73.028559 
L 278.625581 71.698261 
L 280.257011 71.560633 
L 281.88844 66.400013 
L 283.51987 63.808229 
L 285.1513 61.789848 
L 286.78273 59.152198 
L 288.41416 58.188888 
L 290.04559 59.886176 
L 291.67702 59.289826 
L 293.30845 65.253209 
L 294.93988 61.331126 
L 296.571309 59.427454 
L 298.202739 59.427454 
L 299.834169 57.6843 
L 301.465599 57.592538 
L 303.097029 55.734733 
L 306.359889 52.936536 
L 307.991319 52.133773 
L 309.622748 50.986968 
L 311.254178 54.564981 
L 312.885608 52.707175 
L 314.517038 53.555804 
L 316.148468 54.977836 
L 317.779898 56.60631 
L 319.411328 55.04665 
L 321.042758 54.19802 
L 322.674187 70.000973 
L 324.305617 60.092589 
L 325.937047 103.212462 
L 327.568477 75.06986 
L 329.199907 70.964312 
L 330.831337 68.326633 
L 332.462767 60.390764 
L 334.094197 61.010033 
L 337.357056 90.207677 
L 338.988486 90.5288 
L 340.619916 87.317748 
L 342.251346 77.959818 
L 343.882776 89.244367 
L 345.514206 84.77183 
L 347.145636 69.129396 
L 348.777065 70.046839 
L 350.408495 62.133889 
L 352.039925 61.308207 
L 353.671355 58.854023 
L 355.302785 61.99629 
L 356.934215 63.808229 
L 360.197075 59.175146 
L 361.828504 58.188888 
L 363.459934 58.120074 
L 365.091364 59.060465 
L 366.722794 57.982475 
L 368.354224 58.165941 
L 369.985654 75.207488 
L 371.617084 80.024066 
L 373.248514 83.785573 
L 374.879943 95.91878 
L 376.511373 77.386416 
L 378.142803 87.225986 
L 379.774233 81.491964 
L 381.405663 80.184613 
L 383.037093 81.904819 
L 384.668523 93.487543 
L 384.668523 93.487543 
" clip-path="url(#p04c2d15f5f)" style="fill: none; stroke: #1f77b4; stroke-width: 1.5; stroke-linecap: square"/>
   </g>
   <g id="line2d_16">
    <path d="M 60.013977 231.053682 
L 61.645407 145.495408 
L 63.276837 130.88788 
L 64.908267 107.933234 
L 66.539697 89.312665 
L 68.171127 84.657523 
L 69.802557 66.358019 
L 71.433986 71.494716 
L 73.065416 72.297335 
L 74.696846 68.284266 
L 76.328276 70.852643 
L 77.959706 58.492427 
L 79.591136 59.776601 
L 81.222566 54.639904 
L 84.485425 49.021624 
L 86.116855 51.750491 
L 87.748285 58.331909 
L 89.379715 48.700588 
L 91.011145 50.9479 
L 94.274005 45.650656 
L 95.905435 45.971721 
L 97.536864 55.121459 
L 99.168294 44.045446 
L 100.799724 52.071556 
L 102.431154 55.281977 
L 104.062584 48.54007 
L 105.694014 52.713629 
L 107.325444 46.453276 
L 108.956874 50.787382 
L 110.588303 42.440235 
L 112.219733 49.021624 
L 113.851163 41.316579 
L 115.482593 37.785093 
L 117.114023 37.624546 
L 118.745453 45.811175 
L 120.376883 39.390304 
L 122.008313 39.71134 
L 123.639742 41.958652 
L 125.271172 49.021624 
L 126.902602 67.16061 
L 128.534032 92.523115 
L 130.165462 54.800423 
L 131.796892 58.652945 
L 133.428322 50.787382 
L 135.059752 48.700588 
L 136.691181 57.529289 
L 138.322611 47.095349 
L 139.954041 44.205964 
L 141.585471 47.416414 
L 143.216901 46.453276 
L 144.848331 44.848065 
L 146.479761 42.279688 
L 148.111191 47.897968 
L 149.74262 49.663726 
L 151.37405 43.884928 
L 153.00548 47.095349 
L 154.63691 45.32962 
L 156.26834 47.095349 
L 157.89977 53.997803 
L 159.5312 45.008584 
L 161.16263 37.785093 
L 162.79406 40.192923 
L 164.425489 40.834996 
L 166.056919 34.414125 
L 167.688349 41.156032 
L 169.319779 42.92179 
L 170.951209 40.192923 
L 172.582639 38.106129 
L 175.845499 42.11917 
L 177.476928 41.798134 
L 179.108358 41.637616 
L 180.739788 60.739739 
L 182.371218 49.342661 
L 184.002648 53.997803 
L 185.634078 88.028491 
L 187.265508 178.723476 
L 188.896938 192.046801 
L 190.528367 136.50616 
L 192.159797 97.82033 
L 193.791227 89.473183 
L 195.422657 84.818041 
L 197.054087 72.939408 
L 198.685517 80.483964 
L 200.316947 76.149858 
L 201.948377 69.568469 
L 203.579806 70.531578 
L 205.211236 110.341064 
L 206.842666 83.373349 
L 208.474096 78.718206 
L 210.105526 82.570758 
L 211.736956 79.841862 
L 213.368386 67.16061 
L 214.999816 59.455565 
L 216.631245 67.16061 
L 218.262675 64.110707 
L 219.894105 58.331909 
L 221.525535 55.924079 
L 223.156965 158.17666 
L 224.788395 112.427858 
L 226.419825 87.065353 
L 228.051255 97.659812 
L 229.682684 77.59455 
L 231.314114 80.965518 
L 232.945544 109.698991 
L 234.576974 84.336486 
L 236.208404 98.462431 
L 237.839834 86.42328 
L 239.471264 75.668303 
L 241.102694 63.629124 
L 242.734123 64.431743 
L 244.365553 69.407922 
L 245.996983 192.849421 
L 247.628413 105.84644 
L 249.259843 96.536156 
L 250.891273 89.63373 
L 252.522703 75.347238 
L 254.154133 66.036983 
L 255.785562 60.418703 
L 257.416992 75.347238 
L 259.048422 60.739739 
L 260.679852 61.863395 
L 262.311282 63.629124 
L 263.942712 70.050023 
L 265.574142 57.529289 
L 267.205572 61.221294 
L 268.837001 73.58151 
L 270.468431 71.815752 
L 272.099861 55.76356 
L 273.731291 68.284266 
L 275.362721 59.937119 
L 276.994151 70.692096 
L 278.625581 61.702877 
L 280.257011 69.568469 
L 281.88844 58.331909 
L 283.51987 58.010872 
L 285.1513 53.837285 
L 286.78273 55.121459 
L 288.41416 59.937119 
L 290.04559 58.010872 
L 291.67702 57.850354 
L 293.30845 56.566151 
L 294.93988 57.850354 
L 296.571309 54.158321 
L 298.202739 58.010872 
L 299.834169 56.887216 
L 301.465599 52.874147 
L 303.097029 53.516248 
L 304.728459 53.195212 
L 306.359889 49.182143 
L 307.991319 46.774312 
L 309.622748 55.603042 
L 311.254178 51.911038 
L 312.885608 55.281977 
L 314.517038 47.576932 
L 316.148468 52.713629 
L 317.779898 58.97401 
L 319.411328 50.626835 
L 321.042758 63.789671 
L 322.674187 52.713629 
L 324.305617 71.815752 
L 325.937047 83.694385 
L 327.568477 63.789671 
L 329.199907 59.776601 
L 330.831337 53.837285 
L 332.462767 54.639904 
L 334.094197 54.639904 
L 335.725626 83.854932 
L 337.357056 88.991629 
L 338.988486 75.828822 
L 340.619916 79.19979 
L 342.251346 62.505496 
L 343.882776 76.470894 
L 345.514206 74.705166 
L 347.145636 55.924079 
L 348.777065 52.392592 
L 350.408495 54.960941 
L 352.039925 56.566151 
L 353.671355 55.121459 
L 355.302785 52.392592 
L 356.934215 49.342661 
L 358.565645 55.76356 
L 360.197075 55.924079 
L 361.828504 51.268936 
L 363.459934 50.9479 
L 365.091364 51.429455 
L 366.722794 49.984762 
L 368.354224 53.837285 
L 369.985654 61.542359 
L 371.617084 62.987051 
L 373.248514 88.991629 
L 374.879943 69.728987 
L 376.511373 64.271225 
L 378.142803 64.913327 
L 379.774233 68.605331 
L 381.405663 71.976299 
L 383.037093 66.197501 
L 384.668523 74.063064 
L 384.668523 74.063064 
" clip-path="url(#p04c2d15f5f)" style="fill: none; stroke: #ff7f0e; stroke-width: 1.5; stroke-linecap: square"/>
   </g>
   <g id="line2d_17">
    <defs>
     <path id="m694cdef31c" d="M 0 3 
C 0.795609 3 1.55874 2.683901 2.12132 2.12132 
C 2.683901 1.55874 3 0.795609 3 0 
C 3 -0.795609 2.683901 -1.55874 2.12132 -2.12132 
C 1.55874 -2.683901 0.795609 -3 0 -3 
C -0.795609 -3 -1.55874 -2.683901 -2.12132 -2.12132 
C -2.683901 -1.55874 -3 -0.795609 -3 0 
C -3 0.795609 -2.683901 1.55874 -2.12132 2.12132 
C -1.55874 2.683901 -0.795609 3 0 3 
z
" style="stroke: #ffa500"/>
    </defs>
    <g clip-path="url(#p04c2d15f5f)">
     <use xlink:href="#m694cdef31c" x="166.056919" y="34.414125" style="fill: #ffa500; stroke: #ffa500"/>
    </g>
   </g>
   <g id="line2d_18">
    <defs>
     <path id="mad29fa9a3e" d="M 0 3 
C 0.795609 3 1.55874 2.683901 2.12132 2.12132 
C 2.683901 1.55874 3 0.795609 3 0 
C 3 -0.795609 2.683901 -1.55874 2.12132 -2.12132 
C 1.55874 -2.683901 0.795609 -3 0 -3 
C -0.795609 -3 -1.55874 -2.683901 -2.12132 -2.12132 
C -2.683901 -1.55874 -3 -0.795609 -3 0 
C -3 0.795609 -2.683901 1.55874 -2.12132 2.12132 
C -1.55874 2.683901 -0.795609 3 0 3 
z
" style="stroke: #0000ff"/>
    </defs>
    <g clip-path="url(#p04c2d15f5f)">
     <use xlink:href="#mad29fa9a3e" x="166.056919" y="36.927112" style="fill: #0000ff; stroke: #0000ff"/>
    </g>
   </g>
   <g id="patch_3">
    <path d="M 43.78125 288.430125 
L 43.78125 22.318125 
" style="fill: none; stroke: #000000; stroke-width: 0.8; stroke-linejoin: miter; stroke-linecap: square"/>
   </g>
   <g id="patch_4">
    <path d="M 400.90125 288.430125 
L 400.90125 22.318125 
" style="fill: none; stroke: #000000; stroke-width: 0.8; stroke-linejoin: miter; stroke-linecap: square"/>
   </g>
   <g id="patch_5">
    <path d="M 43.78125 288.430125 
L 400.90125 288.430125 
" style="fill: none; stroke: #000000; stroke-width: 0.8; stroke-linejoin: miter; stroke-linecap: square"/>
   </g>
   <g id="patch_6">
    <path d="M 43.78125 22.318125 
L 400.90125 22.318125 
" style="fill: none; stroke: #000000; stroke-width: 0.8; stroke-linejoin: miter; stroke-linecap: square"/>
   </g>
   <g id="text_17">
    <!-- Model accuracy -->
    <g transform="translate(175.347188 16.318125) scale(0.12 -0.12)">
     <defs>
      <path id="DejaVuSans-4d" d="M 628 4666 
L 1569 4666 
L 2759 1491 
L 3956 4666 
L 4897 4666 
L 4897 0 
L 4281 0 
L 4281 4097 
L 3078 897 
L 2444 897 
L 1241 4097 
L 1241 0 
L 628 0 
L 628 4666 
z
" transform="scale(0.015625)"/>
      <path id="DejaVuSans-64" d="M 2906 2969 
L 2906 4863 
L 3481 4863 
L 3481 0 
L 2906 0 
L 2906 525 
Q 2725 213 2448 61 
Q 2172 -91 1784 -91 
Q 1150 -91 751 415 
Q 353 922 353 1747 
Q 353 2572 751 3078 
Q 1150 3584 1784 3584 
Q 2172 3584 2448 3432 
Q 2725 3281 2906 2969 
z
M 947 1747 
Q 947 1113 1208 752 
Q 1469 391 1925 391 
Q 2381 391 2643 752 
Q 2906 1113 2906 1747 
Q 2906 2381 2643 2742 
Q 2381 3103 1925 3103 
Q 1469 3103 1208 2742 
Q 947 2381 947 1747 
z
" transform="scale(0.015625)"/>
      <path id="DejaVuSans-65" d="M 3597 1894 
L 3597 1613 
L 953 1613 
Q 991 1019 1311 708 
Q 1631 397 2203 397 
Q 2534 397 2845 478 
Q 3156 559 3463 722 
L 3463 178 
Q 3153 47 2828 -22 
Q 2503 -91 2169 -91 
Q 1331 -91 842 396 
Q 353 884 353 1716 
Q 353 2575 817 3079 
Q 1281 3584 2069 3584 
Q 2775 3584 3186 3129 
Q 3597 2675 3597 1894 
z
M 3022 2063 
Q 3016 2534 2758 2815 
Q 2500 3097 2075 3097 
Q 1594 3097 1305 2825 
Q 1016 2553 972 2059 
L 3022 2063 
z
" transform="scale(0.015625)"/>
      <path id="DejaVuSans-6c" d="M 603 4863 
L 1178 4863 
L 1178 0 
L 603 0 
L 603 4863 
z
" transform="scale(0.015625)"/>
      <path id="DejaVuSans-20" transform="scale(0.015625)"/>
     </defs>
     <use xlink:href="#DejaVuSans-4d"/>
     <use xlink:href="#DejaVuSans-6f" transform="translate(86.279297 0)"/>
     <use xlink:href="#DejaVuSans-64" transform="translate(147.460938 0)"/>
     <use xlink:href="#DejaVuSans-65" transform="translate(210.9375 0)"/>
     <use xlink:href="#DejaVuSans-6c" transform="translate(272.460938 0)"/>
     <use xlink:href="#DejaVuSans-20" transform="translate(300.244141 0)"/>
     <use xlink:href="#DejaVuSans-61" transform="translate(332.03125 0)"/>
     <use xlink:href="#DejaVuSans-63" transform="translate(393.310547 0)"/>
     <use xlink:href="#DejaVuSans-63" transform="translate(448.291016 0)"/>
     <use xlink:href="#DejaVuSans-75" transform="translate(503.271484 0)"/>
     <use xlink:href="#DejaVuSans-72" transform="translate(566.650391 0)"/>
     <use xlink:href="#DejaVuSans-61" transform="translate(607.763672 0)"/>
     <use xlink:href="#DejaVuSans-63" transform="translate(669.042969 0)"/>
     <use xlink:href="#DejaVuSans-79" transform="translate(724.023438 0)"/>
    </g>
   </g>
   <g id="legend_1">
    <g id="patch_7">
     <path d="M 337.91375 283.430125 
L 393.90125 283.430125 
Q 395.90125 283.430125 395.90125 281.430125 
L 395.90125 253.073875 
Q 395.90125 251.073875 393.90125 251.073875 
L 337.91375 251.073875 
Q 335.91375 251.073875 335.91375 253.073875 
L 335.91375 281.430125 
Q 335.91375 283.430125 337.91375 283.430125 
z
" style="fill: #ffffff; opacity: 0.8; stroke: #cccccc; stroke-linejoin: miter"/>
    </g>
    <g id="line2d_19">
     <path d="M 339.91375 259.172312 
L 349.91375 259.172312 
L 359.91375 259.172312 
" style="fill: none; stroke: #1f77b4; stroke-width: 1.5; stroke-linecap: square"/>
    </g>
    <g id="text_18">
     <!-- Train -->
     <g transform="translate(367.91375 262.672312) scale(0.1 -0.1)">
      <defs>
       <path id="DejaVuSans-54" d="M -19 4666 
L 3928 4666 
L 3928 4134 
L 2272 4134 
L 2272 0 
L 1638 0 
L 1638 4134 
L -19 4134 
L -19 4666 
z
" transform="scale(0.015625)"/>
       <path id="DejaVuSans-69" d="M 603 3500 
L 1178 3500 
L 1178 0 
L 603 0 
L 603 3500 
z
M 603 4863 
L 1178 4863 
L 1178 4134 
L 603 4134 
L 603 4863 
z
" transform="scale(0.015625)"/>
       <path id="DejaVuSans-6e" d="M 3513 2113 
L 3513 0 
L 2938 0 
L 2938 2094 
Q 2938 2591 2744 2837 
Q 2550 3084 2163 3084 
Q 1697 3084 1428 2787 
Q 1159 2491 1159 1978 
L 1159 0 
L 581 0 
L 581 3500 
L 1159 3500 
L 1159 2956 
Q 1366 3272 1645 3428 
Q 1925 3584 2291 3584 
Q 2894 3584 3203 3211 
Q 3513 2838 3513 2113 
z
" transform="scale(0.015625)"/>
      </defs>
      <use xlink:href="#DejaVuSans-54"/>
      <use xlink:href="#DejaVuSans-72" transform="translate(46.333984 0)"/>
      <use xlink:href="#DejaVuSans-61" transform="translate(87.447266 0)"/>
      <use xlink:href="#DejaVuSans-69" transform="translate(148.726562 0)"/>
      <use xlink:href="#DejaVuSans-6e" transform="translate(176.509766 0)"/>
     </g>
    </g>
    <g id="line2d_20">
     <path d="M 339.91375 273.850437 
L 349.91375 273.850437 
L 359.91375 273.850437 
" style="fill: none; stroke: #ff7f0e; stroke-width: 1.5; stroke-linecap: square"/>
    </g>
    <g id="text_19">
     <!-- Val -->
     <g transform="translate(367.91375 277.350437) scale(0.1 -0.1)">
      <defs>
       <path id="DejaVuSans-56" d="M 1831 0 
L 50 4666 
L 709 4666 
L 2188 738 
L 3669 4666 
L 4325 4666 
L 2547 0 
L 1831 0 
z
" transform="scale(0.015625)"/>
      </defs>
      <use xlink:href="#DejaVuSans-56"/>
      <use xlink:href="#DejaVuSans-61" transform="translate(60.658203 0)"/>
      <use xlink:href="#DejaVuSans-6c" transform="translate(121.9375 0)"/>
     </g>
    </g>
   </g>
  </g>
 </g>
 <defs>
  <clipPath id="p04c2d15f5f">
   <rect x="43.78125" y="22.318125" width="357.12" height="266.112"/>
  </clipPath>
 </defs>
</svg>
